<svg xmlns="http://www.w3.org/2000/svg"  viewBox="0 0 64 64" width="64px" height="64px"><g data-name="Color copy"><path fill="#c4f236" d="M19,23H45a0,0,0,0,1,0,0V57a0,0,0,0,1,0,0H22a3,3,0,0,1-3-3V23A0,0,0,0,1,19,23Z"/><path fill="#a1d51c" d="M45,26V23H19V54a3,3,0,0,0,3,3H45V52H37A12,12,0,0,1,25,40V26Z"/><path fill="#d0d8da" d="M22,20H45a0,0,0,0,1,0,0v6a0,0,0,0,1,0,0H22a3,3,0,0,1-3-3v0A3,3,0,0,1,22,20Z"/><path fill="#93999a" d="M22,22H45a0,0,0,0,1,0,0v2a0,0,0,0,1,0,0H22a1,1,0,0,1-1-1v0A1,1,0,0,1,22,22Z"/><g><path fill="#4891d3" d="M57,34H53V28a21,21,0,0,0-42,0v6H7V28a25,25,0,0,1,50,0Z"/><path fill="#57b7eb" d="M32,3A24.84,24.84,0,0,0,19.852,6.161,24.984,24.984,0,0,1,55,29v5h2V28A25.028,25.028,0,0,0,32,3Z"/><path fill="#f9e109" d="M49,26h2a4,4,0,0,1,4,4V44a4,4,0,0,1-4,4H49a0,0,0,0,1,0,0V26A0,0,0,0,1,49,26Z"/><path fill="#f9e109" d="M55,30h2a4,4,0,0,1,4,4v6a4,4,0,0,1-4,4H55a0,0,0,0,1,0,0V30A0,0,0,0,1,55,30Z"/><path fill="#f9e109" d="M9,26h2a4,4,0,0,1,4,4V44a4,4,0,0,1-4,4H9a0,0,0,0,1,0,0V26a0,0,0,0,1,0,0Z" transform="rotate(180 12 37)"/><path fill="#fcbc04" d="M3,30H5a4,4,0,0,1,4,4v6a4,4,0,0,1-4,4H3a0,0,0,0,1,0,0V30A0,0,0,0,1,3,30Z" transform="rotate(180 6 37)"/><path fill="#fcbc04" d="M57,37V30H55V44h2a3.991,3.991,0,0,0,3.863-3.014A3.993,3.993,0,0,1,57,37Z"/><path fill="#fcbc04" d="M51,41V26H49V48h2a3.991,3.991,0,0,0,3.863-3.014A3.993,3.993,0,0,1,51,41Z"/><path fill="#fcbc04" d="M11,41V26.555A3.982,3.982,0,0,0,9,30V44a4,4,0,0,0,4,4h2V45A4,4,0,0,1,11,41Z"/><path fill="#e59730" d="M7,37V30H9V44H7a3.991,3.991,0,0,1-3.863-3.014A3.993,3.993,0,0,0,7,37Z"/></g><g><polygon fill="#f9e109" points="26 40 23 40 23 44 26 44 29 46 29 38 26 40"/><path fill="#fcbc04" d="M23,44h2.7a11.966,11.966,0,0,1-.7-4H23Z"/><path fill="#fcbc04" d="M24,40H23v4h3l3,2V43H27A3,3,0,0,1,24,40Z"/><path fill="#e59730" d="M24,40H23v4h2.7a12.43,12.43,0,0,1-.429-1.558A2.989,2.989,0,0,1,24,40Z"/><path fill="#f9e109" d="M40.087,47.593a1,1,0,0,1-.924-1.383,10.934,10.934,0,0,0,0-8.42,1,1,0,0,1,1.848-.765,12.923,12.923,0,0,1,0,9.95A1,1,0,0,1,40.087,47.593Z"/><path fill="#f9e109" d="M36.391,46.062a1,1,0,0,1-.924-1.383,6.951,6.951,0,0,0,0-5.358,1,1,0,1,1,1.847-.765,8.931,8.931,0,0,1,0,6.888A1,1,0,0,1,36.391,46.062Z"/><path fill="#f9e109" d="M32.7,44.531a1.014,1.014,0,0,1-.383-.076,1,1,0,0,1-.541-1.307,2.977,2.977,0,0,0,0-2.3,1,1,0,1,1,1.848-.765,4.969,4.969,0,0,1,0,3.827A1,1,0,0,1,32.7,44.531Z"/><path fill="#f9e109" d="M35,53H29a1,1,0,0,1,0-2h6a1,1,0,0,1,0,2Z"/><path fill="#fcbc04" d="M28,52a1,1,0,0,0,1,1h6a1,1,0,0,0,1-1c0-.018-.009-.033-.01-.051A11.905,11.905,0,0,1,32.211,51H29A1,1,0,0,0,28,52Z"/><path fill="#f9e109" d="M35,33H29a1,1,0,0,1,0-2h6a1,1,0,0,1,0,2Z"/></g></g></svg>